<svg width="200" height="200" viewBox="0 0 200 200" fill="none" xmlns="http://www.w3.org/2000/svg">
    <rect width="200" height="200" rx="100" fill="#E5E7EB"/>
    <path d="M100 100C111.046 100 120 91.0457 100 50C100 50 88.9543 50 100 50C111.046 50 100 38.9543 100 50C100 50 100 61.0457 100 100Z" fill="#9CA3AF"/>
    <path d="M100 100C88.9543 100 80 91.0457 80 80C80 68.9543 100 50 100 50C100 50 120 68.9543 120 80C120 91.0457 111.046 100 100 100Z" fill="#6B7280"/>
    <path d="M100 120C122.091 120 140 102.091 140 80H60C60 102.091 77.9086 120 100 120Z" fill="#6B7280"/>
    <path d="M100 120C122.091 120 140 137.909 140 160H60C60 137.909 77.9086 120 100 120Z" fill="#4B5563"/>
</svg>
